<svg width="28" height="28" viewBox="0 0 28 28" fill="none" xmlns="http://www.w3.org/2000/svg">
<path d="M7.62956 11.1982C7.62956 10.6593 8.0669 10.2225 8.60639 10.2225H19.026C19.5655 10.2225 20.0028 10.6593 20.0028 11.1982C20.0028 11.737 19.5655 12.1739 19.026 12.1739H8.60639C8.0669 12.1739 7.62956 11.737 7.62956 11.1982Z" fill="#8B6B52"/>
<path d="M7.62956 16.4019C7.62956 15.863 8.0669 15.4262 8.60639 15.4262H19.026C19.5655 15.4262 20.0028 15.863 20.0028 16.4019C20.0028 16.9407 19.5655 17.3776 19.026 17.3776H8.60639C8.0669 17.3776 7.62956 16.9407 7.62956 16.4019Z" fill="#8B6B52"/>
<path fill-rule="evenodd" clip-rule="evenodd" d="M4.10089 4.09609C9.56874 -1.36536 18.4339 -1.36536 23.9017 4.09609C25.5084 5.70093 26.9775 8.16664 27.6355 10.9141C28.2968 13.6752 28.1528 16.7934 26.4118 19.6075C26.3214 19.7535 26.2637 19.847 26.2225 19.9176C26.1945 19.9655 26.1838 19.9869 26.1816 19.9912C26.1631 20.0386 26.1609 20.056 26.1609 20.056C26.1609 20.056 26.1578 20.076 26.162 20.1302C26.1613 20.1207 26.1608 20.1304 26.1739 20.1879C26.1877 20.2491 26.2085 20.3296 26.2437 20.4654L26.2527 20.4998C26.4574 21.2887 26.6235 21.9287 26.7207 22.4439C26.8186 22.962 26.8707 23.4649 26.7722 23.9486C26.4856 25.3553 25.385 26.4546 23.9767 26.7408C23.4924 26.8393 22.989 26.7872 22.4702 26.6895C21.9544 26.5923 21.3137 26.4264 20.5239 26.2219L20.4894 26.213C20.3533 26.1778 20.2728 26.1571 20.2116 26.1433C20.1728 26.1345 20.1558 26.1318 20.1517 26.1313C20.0985 26.1273 20.0794 26.1305 20.0794 26.1305C20.0794 26.1305 20.061 26.133 20.0141 26.1513C20.0098 26.1535 19.9886 26.1642 19.9412 26.1919C19.8711 26.2329 19.7784 26.2904 19.6332 26.3805C16.8278 28.1219 13.7401 28.3032 10.9824 27.6558C8.2391 27.0118 5.76759 25.5385 4.10089 23.8737C-1.36696 18.4123 -1.36696 9.55754 4.10089 4.09609ZM22.5203 5.47592C17.8154 0.776537 10.1872 0.776537 5.48234 5.47592C0.777447 10.1753 0.777447 17.7945 5.48234 22.4939C6.90034 23.9102 9.05118 25.1979 11.4294 25.7562C13.7932 26.3111 16.3261 26.1358 18.602 24.7231C18.6226 24.7103 18.6432 24.6975 18.6638 24.6846C18.8799 24.5501 19.0939 24.4169 19.2856 24.3406C19.6287 24.2042 19.9351 24.1575 20.3033 24.1857C20.5086 24.2015 20.7217 24.257 20.9259 24.3101C20.9439 24.3148 20.9617 24.3194 20.9795 24.3241C21.8121 24.5396 22.3889 24.6884 22.8322 24.7719C23.2801 24.8562 23.4813 24.8502 23.5871 24.8287C24.2272 24.6985 24.7275 24.1988 24.8578 23.5595C24.8793 23.4538 24.8854 23.2528 24.8009 22.8055C24.7173 22.3627 24.5683 21.7866 24.3526 20.955C24.3479 20.9372 24.3433 20.9193 24.3386 20.9013C24.2854 20.6975 24.2299 20.4849 24.2141 20.2805C24.1857 19.9132 24.2317 19.6095 24.3675 19.267C24.4432 19.0758 24.5763 18.8613 24.7111 18.6441C24.724 18.6233 24.7369 18.6025 24.7498 18.5817C26.1557 16.3094 26.3062 13.7509 25.7355 11.3681C25.1615 8.97173 23.8722 6.82632 22.5203 5.47592Z" fill="#8B6B52"/>
</svg>
